<svg width="26" height="26" viewBox="0 0 26 26" fill="none" xmlns="http://www.w3.org/2000/svg">
<path d="M8.5 25.5C6.94167 25.5 5.60764 24.9451 4.49792 23.8354C3.38819 22.7257 2.83333 21.3917 2.83333 19.8333V8.25208C2.00694 7.94514 1.32836 7.43183 0.797583 6.71217C0.266805 5.9925 0.000944444 5.17178 0 4.25C0 3.06944 0.413194 2.06597 1.23958 1.23958C2.06597 0.413194 3.06944 0 4.25 0C5.43056 0 6.43403 0.413194 7.26042 1.23958C8.08681 2.06597 8.5 3.06944 8.5 4.25C8.5 5.17083 8.23461 5.99156 7.70383 6.71217C7.17306 7.43278 6.494 7.94608 5.66667 8.25208V19.8333C5.66667 20.6125 5.94433 21.2797 6.49967 21.8351C7.055 22.3904 7.72178 22.6676 8.5 22.6667C9.27822 22.6657 9.94547 22.3885 10.5017 21.8351C11.058 21.2816 11.3352 20.6144 11.3333 19.8333V5.66667C11.3333 4.10833 11.8882 2.77431 12.9979 1.66458C14.1076 0.554861 15.4417 0 17 0C18.5583 0 19.8924 0.554861 21.0021 1.66458C22.1118 2.77431 22.6667 4.10833 22.6667 5.66667V17.2479C23.4931 17.5549 24.1721 18.0686 24.7038 18.7892C25.2356 19.5099 25.5009 20.3301 25.5 21.25C25.5 22.4306 25.0868 23.434 24.2604 24.2604C23.434 25.0868 22.4306 25.5 21.25 25.5C20.0694 25.5 19.066 25.0868 18.2396 24.2604C17.4132 23.434 17 22.4306 17 21.25C17 20.3292 17.2659 19.5028 17.7976 18.7708C18.3293 18.0389 19.0079 17.5312 19.8333 17.2479V5.66667C19.8333 4.8875 19.5561 4.22072 19.0017 3.66633C18.4474 3.11194 17.7801 2.83428 17 2.83333C16.2199 2.83239 15.5531 3.11006 14.9997 3.66633C14.4462 4.22261 14.1686 4.88939 14.1667 5.66667V19.8333C14.1667 21.3917 13.6118 22.7257 12.5021 23.8354C11.3924 24.9451 10.0583 25.5 8.5 25.5ZM4.25 5.66667C4.65139 5.66667 4.98808 5.53067 5.26008 5.25867C5.53208 4.98667 5.66761 4.65044 5.66667 4.25C5.66572 3.84956 5.52972 3.51333 5.25867 3.24133C4.98761 2.96933 4.65139 2.83333 4.25 2.83333C3.84861 2.83333 3.51239 2.96933 3.24133 3.24133C2.97028 3.51333 2.83428 3.84956 2.83333 4.25C2.83239 4.65044 2.96839 4.98714 3.24133 5.26008C3.51428 5.53303 3.8505 5.66856 4.25 5.66667ZM21.25 22.6667C21.6514 22.6667 21.9881 22.5307 22.2601 22.2587C22.5321 21.9867 22.6676 21.6504 22.6667 21.25C22.6657 20.8496 22.5297 20.5133 22.2587 20.2413C21.9876 19.9693 21.6514 19.8333 21.25 19.8333C20.8486 19.8333 20.5124 19.9693 20.2413 20.2413C19.9703 20.5133 19.8343 20.8496 19.8333 21.25C19.8324 21.6504 19.9684 21.9871 20.2413 22.2601C20.5143 22.533 20.8505 22.6686 21.25 22.6667Z" fill="#7A7979"/>
</svg>
