<svg width="23" height="21" viewBox="0 0 23 21" fill="none" xmlns="http://www.w3.org/2000/svg">
<path d="M8.10338 19.2821V16.2152C8.10337 15.4381 8.8266 14.8067 9.72243 14.8018H13.0118C13.9116 14.8018 14.6411 15.4346 14.6411 16.2152V16.2152V19.2732C14.641 19.9473 15.2679 20.4951 16.0449 20.5H18.289C19.3371 20.5023 20.3432 20.1428 21.0853 19.5007C21.8274 18.8586 22.2444 17.9868 22.2444 17.0775V8.36585C22.2444 7.63139 21.8691 6.93471 21.2197 6.4635L13.5959 1.17427C12.2632 0.249123 10.3598 0.279008 9.06661 1.24538L1.60669 6.4635C0.926581 6.92082 0.520088 7.61956 0.5 8.36585V17.0686C0.5 18.9637 2.27089 20.5 4.4554 20.5H6.64829C7.02239 20.5023 7.3821 20.3751 7.6476 20.1464C7.91309 19.9178 8.0624 19.6067 8.06239 19.2821H8.10338Z" stroke="#7A7979"/>
</svg>
